<?xml version="1.0" encoding="UTF-8"?>
<svg xmlns="http://www.w3.org/2000/svg" width="240" height="240" viewBox="0 0 240 240">
  <!-- Seamless tile: hand-drawn look; all styles inline for CSS background compatibility -->

  <!-- TOP CLUSTER -->
  <!-- tomato -->
  <g transform="translate(30,30)">
    <circle cx="0" cy="0" r="10" fill="#fecaca" stroke="#0f172a" stroke-width="1.5" stroke-linecap="round" stroke-linejoin="round"/>
    <path d="M-2 -8 c6 -8 14 -7 17 0 M0 -10 l1 3.5" fill="none" stroke="#0f172a" stroke-width="1.5" stroke-linecap="round" stroke-linejoin="round"/>
  </g>
  <!-- carrot -->
  <g transform="translate(86,26) rotate(14)">
    <path d="M0 0 L-20 8 L-2 -14 Z" fill="#fdba74" stroke="#0f172a" stroke-width="1.5" stroke-linecap="round" stroke-linejoin="round"/>
    <path d="M-3 -14 l-4 -5 M-1 -12 l5 -5" fill="none" stroke="#0f172a" stroke-width="1.5" stroke-linecap="round" stroke-linejoin="round"/>
  </g>
  <!-- cucumber slice -->
  <g transform="translate(140,40)">
    <circle cx="0" cy="0" r="9" fill="#bbf7d0" stroke="#0f172a" stroke-width="1.5" stroke-linecap="round" stroke-linejoin="round"/>
    <circle cx="0" cy="0" r="3.5" fill="none" stroke="#0f172a" stroke-width="1.3" stroke-linecap="round" stroke-linejoin="round"/>
  </g>
  <!-- bottle -->
  <g transform="translate(186,28)">
    <path d="M-7 -12 h14 v5 c0 2 -2 3 -2 5 v11 a6 6 0 0 1 -12 0 v-11 c0 -2 -2 -3 -2 -5z" fill="#bfdbfe" stroke="#0f172a" stroke-width="1.5" stroke-linecap="round" stroke-linejoin="round"/>
    <rect x="-5" y="-15" width="10" height="3.6" rx="1.8" fill="#93c5fd" stroke="#0f172a" stroke-width="1.2" stroke-linecap="round" stroke-linejoin="round"/>
  </g>

  <!-- LEFT-MID CLUSTER -->
  <!-- bread -->
  <g transform="translate(30,120)">
    <rect x="-14" y="-9" rx="7" ry="7" width="31" height="20" fill="#fde68a" stroke="#0f172a" stroke-width="1.5" stroke-linecap="round" stroke-linejoin="round"/>
    <circle cx="-6" cy="-2" r="1.6" fill="#fcd34d"/>
    <circle cx="2" cy="0" r="1.6" fill="#fcd34d"/>
    <circle cx="9" cy="-3" r="1.6" fill="#fcd34d"/>
  </g>
  <!-- cherry -->
  <g transform="translate(70,122)">
    <circle cx="0" cy="0" r="7" fill="#fecaca" stroke="#0f172a" stroke-width="1.5" stroke-linecap="round" stroke-linejoin="round"/>
    <path d="M0 -8 q6 -6 11 -2" fill="none" stroke="#0f172a" stroke-width="1.5" stroke-linecap="round" stroke-linejoin="round"/>
  </g>
  <!-- pea pod -->
  <g transform="translate(28,160)">
    <path d="M0 0 q20 6 34 0 q-3 10 -17 10 q-14 0 -17 -10z" fill="#bbf7d0" stroke="#0f172a" stroke-width="1.5" stroke-linecap="round" stroke-linejoin="round"/>
    <circle cx="6" cy="6" r="1.8" fill="none" stroke="#0f172a" stroke-width="1.2"/>
    <circle cx="13" cy="7" r="1.8" fill="none" stroke="#0f172a" stroke-width="1.2"/>
    <circle cx="20" cy="7" r="1.8" fill="none" stroke="#0f172a" stroke-width="1.2"/>
    <circle cx="27" cy="6" r="1.8" fill="none" stroke="#0f172a" stroke-width="1.2"/>
  </g>

  <!-- CENTER CLUSTER -->
  <!-- pineapple -->
  <g transform="translate(120,120)">
    <path d="M0 -22 l6 8 l-6 8 l-6 -8z" fill="#86efac" stroke="#0f172a" stroke-width="1.5" stroke-linecap="round" stroke-linejoin="round"/>
    <ellipse cx="0" cy="10" rx="14" ry="18" fill="#fde68a" stroke="#0f172a" stroke-width="1.5" stroke-linecap="round" stroke-linejoin="round"/>
    <path d="M-10 -2 l20 20 M-6 2 l20 20 M-14 10 h28 M-12 16 h24" fill="none" stroke="#0f172a" stroke-width="1.3" stroke-linecap="round" stroke-linejoin="round"/>
  </g>
  <!-- lemon -->
  <g transform="translate(172,128) rotate(-12)">
    <ellipse cx="0" cy="0" rx="16" ry="11" fill="#fef08a" stroke="#0f172a" stroke-width="1.5" stroke-linecap="round" stroke-linejoin="round"/>
  </g>
  <!-- mushroom -->
  <g transform="translate(76,136)">
    <path d="M-10 0 q10 -16 20 0 v8 q0 6 -10 6 q-10 0 -10 -6z" fill="#e5e7eb" stroke="#0f172a" stroke-width="1.5" stroke-linecap="round" stroke-linejoin="round"/>
  </g>

  <!-- BOTTOM-RIGHT CLUSTER -->
  <!-- cheese -->
  <g transform="translate(164,182) rotate(-6)">
    <rect x="-12" y="-8" rx="4" ry="4" width="26" height="16" fill="#fde68a" stroke="#0f172a" stroke-width="1.5" stroke-linecap="round" stroke-linejoin="round"/>
    <circle cx="-5" cy="-2" r="1.6" fill="#fcd34d"/>
    <circle cx="3" cy="1" r="1.6" fill="#fcd34d"/>
  </g>
  <!-- apple -->
  <g transform="translate(204,184)">
    <path d="M0 0 c8 -10 20 -8 24 0 c-2 10 -8 14 -12 14 c-4 0 -10 -4 -12 -14z" fill="#fecaca" stroke="#0f172a" stroke-width="1.5" stroke-linecap="round" stroke-linejoin="round"/>
    <path d="M10 -6 l3 -6" fill="none" stroke="#0f172a" stroke-width="1.2" stroke-linecap="round" stroke-linejoin="round"/>
    <circle cx="12" cy="-8" r="0.6" fill="#0f172a"/>
  </g>
  <!-- leaf -->
  <g transform="translate(148,210) rotate(24)">
    <path d="M0 0 c16 -6 22 -4 30 4 c-8 8 -14 10 -30 4z" fill="#bbf7d0" stroke="#0f172a" stroke-width="1.5" stroke-linecap="round" stroke-linejoin="round"/>
    <path d="M2 2 l20 4" fill="none" stroke="#0f172a" stroke-width="1.2" stroke-linecap="round" stroke-linejoin="round"/>
  </g>

  <!-- edge dots to avoid visible seams when tiling -->
  <g opacity=".25">
    <circle cx="6" cy="6" r="1.2" fill="#94a3b8"/>
    <circle cx="234" cy="8" r="1.2" fill="#94a3b8"/>
    <circle cx="8" cy="234" r="1.2" fill="#94a3b8"/>
    <circle cx="232" cy="232" r="1.2" fill="#94a3b8"/>
  </g>
</svg>
